HIERARCHY
ROOT Hips
{
	OFFSET	0.00	0.00	0.00
	CHANNELS 6 Xposition Yposition Zposition Zrotation Xrotation Yrotation
	JOINT LeftHip
	{
		OFFSET	 3.430000	 0.000000	 0.000000
		CHANNELS 3 Zrotation Xrotation Yrotation
		JOINT LeftKnee
		{
			OFFSET	 0.000000	-18.469999	 0.000000
			CHANNELS 3 Zrotation Xrotation Yrotation
			JOINT LeftAnkle
			{
				OFFSET	 0.000000	-17.950001	 0.000000
				CHANNELS 3 Zrotation Xrotation Yrotation
				End Site 
				{
					OFFSET	 0.000000	-3.119996	 0.000000
				}
			}
		}
	}
	JOINT RightHip
	{
		OFFSET	-3.430000	 0.000000	 0.000000
		CHANNELS 3 Zrotation Xrotation Yrotation
		JOINT RightKnee
		{
			OFFSET	 0.000000	-18.809999	 0.000000
			CHANNELS 3 Zrotation Xrotation Yrotation
			JOINT RightAnkle
			{
				OFFSET	 0.000000	-17.570000	 0.000000
				CHANNELS 3 Zrotation Xrotation Yrotation
				End Site 
				{
					OFFSET	 0.000000	-3.250000	 0.000000
				}
			}
		}
	}
	JOINT Chest
	{
		OFFSET	 0.000000	 4.570000	 0.000000
		CHANNELS 3 Zrotation Xrotation Yrotation
		JOINT LeftCollar
		{
			OFFSET	 1.060000	 15.330000	 1.760000
			CHANNELS 3 Zrotation Xrotation Yrotation
			JOINT LeftShoulder
			{
				OFFSET	 5.810000	 0.000000	 0.000000
				CHANNELS 3 Zrotation Xrotation Yrotation
				JOINT LeftElbow
				{
					OFFSET	 0.000000	-12.080000	 0.000000
					CHANNELS 3 Zrotation Xrotation Yrotation
					JOINT LeftWrist
					{
						OFFSET	 0.000000	-9.820000	 0.000000
						CHANNELS 3 Zrotation Xrotation Yrotation
						End Site 
						{
							OFFSET	 0.000000	-7.369996	 0.000000
						}
					}
				}
			}
		}
		JOINT RightCollar
		{
			OFFSET	-1.060000	 15.330000	 1.760000
			CHANNELS 3 Zrotation Xrotation Yrotation
			JOINT RightShoulder
			{
				OFFSET	-6.060000	 0.000000	 0.000000
				CHANNELS 3 Zrotation Xrotation Yrotation
				JOINT RightElbow
				{
					OFFSET	 0.000000	-11.900000	 0.000000
					CHANNELS 3 Zrotation Xrotation Yrotation
					JOINT RightWrist
					{
						OFFSET	 0.000000	-9.520000	 0.000000
						CHANNELS 3 Zrotation Xrotation Yrotation
						End Site 
						{
							OFFSET	 0.000000	-7.140012	 0.000000
						}
					}
				}
			}
		}
		JOINT Neck
		{
			OFFSET	 0.000000	 17.620001	 0.000000
			CHANNELS 3 Zrotation Xrotation Yrotation
			JOINT Head
			{
				OFFSET	 0.000000	 5.190000	 0.000000
				CHANNELS 3 Zrotation Xrotation Yrotation
				End Site 
				{
					OFFSET	 0.000000	 4.140008	 0.000000
				}
			}
		}
	}
}

MOTION
Frames: 23
Frame Time: 0.033333
-24.4637 -6.1649 -47.819 -13.7674 -2.95372 89.865 20.6259 -31.8001 7.48524 3.50705 45.0192 -5.96307 -14.3035 -16.6772 -12.9149 -37.4673 -25.1128 -28.0188 -5.25795 36.4697 7.35647 27.2825 -0.815022 9.26775 17.9451 30.76 -5.52454 0 0 0 20.0092 -41.4225 8.29893 -93.6294 -46.6925 -69.2069 50.8494 -19.0279 -3.58079 0 0 0 -26.2959 -41.5605 -7.29726 71.367 -59.4075 56.5666 -68.702 -45.5223 7.53932 0 0 0 -11.5381 -28.4576 15.1055 
-24.6194 -7.1041 -46.3148 -10.5794 -4.58941 93.9179 23.2868 -31.6013 8.87356 4.41821 45.7758 -7.21128 -14.9334 -16.212 -13.3434 -37.8315 -24.1146 -26.1929 -3.36951 37.1067 6.61742 29.3314 -2.32707 9.78785 17.5628 31.0279 -5.58353 0 0 0 20.0715 -42.1687 8.44685 -93.0966 -46.1975 -68.5093 50.7025 -18.2758 -3.80099 0 0 0 -27.2557 -41.1914 -8.3034 71.5785 -59.4434 56.7758 -68.5826 -44.3381 7.17136 0 0 0 -9.95546 -28.5282 12.0909 
-24.7274 -7.9177 -45.0692 -7.36513 -5.54788 96.632 25.1612 -31.4728 8.72235 4.98606 46.2569 -8.13026 -15.8292 -16.17 -14.1245 -37.7948 -22.2031 -24.8928 -1.87578 39.5612 6.44334 30.2916 -4.88759 8.93997 16.9314 31.2635 -5.56935 0 0 0 20.4307 -42.9774 8.21037 -92.5005 -45.7865 -67.777 50.8244 -17.5405 -3.88751 0 0 0 -28.0954 -40.5696 -9.30762 71.7965 -59.4764 57.0034 -68.6793 -43.281 6.58995 0 0 0 -8.40832 -28.4197 9.51852 
-24.7952 -8.5656 -44.2053 -4.54972 -5.9484 98.5941 26.1228 -31.3188 7.48206 5.11516 46.5746 -8.26995 -17.0027 -16.2401 -15.222 -37.2535 -20.4011 -24.8232 -1.6681 42.0082 6.97457 30.4771 -7.30583 8.20204 16.1169 31.571 -5.46277 0 0 0 20.6324 -43.7447 7.99121 -91.9428 -45.2839 -67.0805 50.4221 -16.9381 -4.07966 0 0 0 -28.9524 -39.6951 -10.3036 72.1794 -59.4119 57.4693 -68.9364 -42.3178 5.80323 0 0 0 -7.26775 -28.3125 7.47469 
-24.868 -8.7916 -43.8763 -2.57673 -5.77622 99.9222 26.489 -31.5309 6.32951 5.16175 46.7099 -8.39406 -17.8195 -16.0962 -15.3507 -36.954 -19.4699 -25.7853 -2.15994 43.5812 7.72169 29.9086 -8.63585 8.37887 15.5108 31.6075 -5.90819 0 0 0 20.9761 -44.752 7.28515 -91.5053 -45.0179 -66.5709 50.6789 -16.4346 -4.03866 0 0 0 -29.559 -38.989 -11.4009 72.4272 -59.1747 57.8562 -68.8544 -41.7387 5.12466 0 0 0 -6.61996 -28.4046 6.77157 
-24.9057 -8.6936 -44.0245 -2.42372 -5.42344 100.173 26.1278 -31.9765 5.28595 5.08129 46.7879 -8.36885 -18.2468 -15.7252 -14.3913 -37.3756 -19.705 -26.2842 -2.26879 43.4184 8.34076 29.5744 -8.28466 7.87398 15.0349 31.7539 -6.61562 0 0 0 21.6035 -45.6915 6.83905 -91.2609 -45.1969 -66.2395 50.8865 -16.0066 -4.02052 0 0 0 -29.8418 -38.7279 -12.3009 72.6039 -58.8548 58.0524 -69.2766 -41.2358 4.51132 0 0 0 -6.16947 -28.6341 7.57113 
-24.9735 -8.1914 -44.685 -4.85068 -4.89545 99.1566 25.3714 -32.8261 4.91133 4.71415 47.2001 -7.60699 -18.3313 -15.4679 -13.3826 -38.4432 -21.7258 -25.8315 -2.21785 41.7771 7.63926 29.8252 -5.69598 7.24366 14.6963 31.7113 -7.39767 0 0 0 22.5694 -46.6333 7.23115 -91.288 -45.6308 -66.3067 51.1002 -15.5122 -3.85596 0 0 0 -29.8438 -39.2677 -12.8703 72.92 -58.3107 58.3807 -69.5154 -40.9907 4.39126 0 0 0 -6.21487 -29.2892 10.0177 
-25.0489 -7.4581 -45.6192 -7.81369 -4.2726 97.2548 24.2181 -33.9079 3.94899 4.41147 47.502 -6.70615 -18.5096 -15.3174 -12.6387 -38.9909 -24.3186 -25.2872 -1.73681 39.1709 5.94158 29.5444 -2.27219 6.82659 14.8339 31.6208 -8.37347 0 0 0 23.6972 -47.5378 7.74278 -91.6044 -46.1289 -66.8712 51.6097 -15.0482 -3.28776 0 0 0 -29.789 -40.4968 -13.5334 72.9652 -57.7821 58.3581 -68.9992 -41.104 4.89098 0 0 0 -6.66315 -30.14 13.2405 
-25.1418 -6.6295 -46.8647 -11.1278 -3.82324 94.7179 23.6452 -34.5731 3.23372 4.03109 47.0378 -6.18841 -19.0999 -15.0537 -12.151 -39.1122 -27.5219 -26.0338 -1.95128 36.4609 5.68877 29.4107 1.18225 5.34114 14.9431 31.5436 -8.48394 0 0 0 24.8091 -48.3741 8.33456 -91.9884 -46.7636 -67.5477 51.8678 -14.5192 -2.73429 0 0 0 -29.5273 -41.9763 -13.8924 72.8768 -57.414 58.1614 -68.743 -41.2494 5.67835 0 0 0 -6.98458 -30.6661 16.7691 
-25.2146 -5.7204 -48.2007 -14.0712 -2.93304 90.7856 23.1963 -35.1895 2.3268 3.39887 46.4818 -5.40224 -19.7932 -14.9179 -11.5039 -39.1374 -30.0718 -27.6813 -2.44092 34.4309 5.53277 29.0788 4.45785 4.71078 15.0196 31.6237 -8.40836 0 0 0 26.3343 -49.1772 9.55244 -92.4902 -47.4383 -68.2301 52.0006 -14.0268 -2.08087 0 0 0 -29.3886 -43.7023 -14.0976 72.757 -57.2821 57.9032 -68.1795 -41.4245 6.78131 0 0 0 -7.33816 -31.0988 20.3944 
-25.3201 -4.9972 -49.6522 -15.6817 -1.81161 85.0798 22.3801 -35.4563 1.61432 2.71829 46.4172 -4.32227 -20.2079 -16.0607 -11.5539 -38.79 -31.0318 -29.029 -2.88979 33.8356 5.63922 28.4933 4.59777 4.38293 14.671 31.9606 -7.83314 0 0 0 27.8476 -49.921 10.8024 -92.5834 -48.0136 -68.4802 52.5265 -13.3598 -1.29711 0 0 0 -28.368 -45.2524 -13.5135 72.7266 -57.4927 57.7214 -67.0496 -41.6886 8.49851 0 0 0 -7.10962 -31.1021 23.7035 
-25.4758 -4.49 -50.9957 -15.4671 -0.73875 78.7322 21.9625 -35.71 1.81591 2.49834 46.5491 -3.86496 -20.566 -16.9987 -11.7709 -38.1691 -32.1334 -28.8007 -2.7497 33.6536 4.87589 28.1151 4.36585 3.63035 13.8068 32.4601 -6.81745 0 0 0 29.2732 -50.188 12.6247 -92.3089 -48.3005 -68.3011 52.5413 -12.6829 -0.614187 0 0 0 -26.8782 -46.6718 -12.066 72.3632 -58.0709 57.2088 -66.5306 -41.7157 10.0876 0 0 0 -6.31149 -31.0299 25.8694 
-25.6189 -4.1309 -52.1609 -13.6519 0.0189077 72.6159 21.9936 -35.9141 2.4187 2.2437 46.5735 -3.26137 -20.9747 -17.7874 -12.4704 -37.4747 -32.521 -28.9905 -2.45893 33.4459 4.24539 27.4342 4.08259 3.06027 12.8519 33.065 -5.64856 0 0 0 30.3374 -50.4885 14.3417 -91.8958 -47.8793 -67.8384 52.8601 -12.2201 0.0287515 0 0 0 -25.605 -47.7207 -11.01 71.8258 -58.6777 56.6442 -65.514 -41.798 11.6367 0 0 0 -5.5908 -31.1985 26.9766 
-25.7118 -3.7667 -53.3111 -13.3178 0.708999 67.4558 21.9568 -36.7122 3.19626 1.8487 46.2728 -2.97006 -20.6406 -18.4667 -11.8452 -37.4296 -32.9329 -32.8191 -2.73662 33.0451 5.11809 28.0145 5.43101 4.34936 12.312 33.0665 -5.16546 0 0 0 29.8511 -50.5787 13.7934 -90.6901 -47.5225 -66.9851 53.4844 -11.9116 0.526232 0 0 0 -24.7574 -47.6259 -10.9621 70.9726 -58.8548 55.9575 -64.3204 -41.3535 12.5146 0 0 0 -4.32765 -30.9388 25.4503 
-25.8449 -3.4453 -54.4612 -13.1503 1.14625 62.5582 22.4426 -37.403 5.35988 1.81982 45.9836 -2.8341 -20.0567 -18.8339 -11.1242 -37.5249 -33.2538 -36.2868 -2.76386 32.7822 6.13845 30.4113 6.63381 4.95798 11.9386 32.8946 -4.74537 0 0 0 28.2589 -50.5989 11.6457 -89.0504 -47.577 -65.784 54.04 -11.531 0.570924 0 0 0 -24.2172 -46.667 -10.985 69.2279 -59.133 54.5744 -63.3752 -40.8857 12.4006 0 0 0 -2.99425 -30.2322 22.4518 
-25.8775 -3.0586 -55.4933 -13.2778 1.47964 58.0915 23.0958 -37.9428 8.30294 1.94911 46.1898 -2.24422 -18.9676 -19.0597 -10.1598 -37.1832 -32.7805 -37.9575 -2.04756 33.3525 5.81636 32.3499 7.01049 6.33274 12.207 33.2818 -5.74621 0 0 0 27.0423 -50.4647 10.0451 -87.209 -47.7897 -64.4774 54.5442 -11.1581 0.320967 0 0 0 -23.3918 -45.9245 -10.3175 67.3962 -59.3972 53.046 -63.0618 -40.4486 11.7643 0 0 0 -1.33447 -29.6256 18.7465 
-25.8976 -2.7799 -56.528 -13.342 1.8063 53.2305 23.8138 -38.2385 11.8329 2.16681 46.4865 -1.48921 -17.6106 -19.1661 -9.05752 -36.4147 -32.1296 -38.6372 -1.3309 33.7436 5.35916 33.522 6.89244 7.3768 12.2315 33.4631 -6.66369 0 0 0 25.5698 -50.1455 8.23 -85.3228 -47.8883 -63.1616 54.8374 -10.9936 -0.205878 0 0 0 -22.1971 -44.8807 -9.43285 65.6364 -59.3302 51.6845 -63.028 -40.1361 10.7627 0 0 0 0.519047 -28.7337 14.3377 
-25.8901 -2.3103 -57.4446 -13.9148 2.7536 48.4077 25.0963 -38.6752 15.7787 2.64128 46.1665 -1.49699 -16.3594 -18.0339 -6.60639 -36.1156 -32.0952 -39.8934 -0.884818 33.5118 5.05854 32.8089 9.40302 7.88754 12.1506 33.0907 -7.54275 0 0 0 24.1345 -49.7385 6.61052 -83.6262 -48.0849 -62.1001 54.7668 -11.1848 -0.889292 0 0 0 -21.574 -44.1413 -8.99133 63.3566 -59.0431 49.7669 -63.4568 -39.9709 9.24312 0 0 0 1.9206 -27.7576 9.75383 
-25.7871 -1.8005 -58.213 -14.2902 4.02181 42.8869 26.7413 -38.4565 19.7535 2.9254 45.4805 -1.54327 -15.4377 -17.1679 -3.71714 -35.4584 -30.6446 -41.8574 -0.962405 33.8725 6.06353 30.2841 11.3478 8.13681 11.8296 32.2994 -8.05418 0 0 0 22.8356 -48.7059 5.62135 -82.141 -48.3983 -61.2389 54.5276 -11.6256 -1.61065 0 0 0 -21.0379 -43.1418 -8.47512 61.7151 -58.3053 48.588 -63.9011 -39.8785 7.52202 0 0 0 2.67134 -25.9878 5.11552 
-25.6792 -1.3259 -58.9814 -14.0174 5.58434 35.6945 28.5653 -36.9211 24.02 3.18721 44.6508 -1.52946 -15.1133 -16.3497 -0.441973 -34.6937 -28.95 -42.2965 -1.46104 35.0396 7.41688 27.9449 11.3953 8.39872 10.8709 30.748 -8.34427 0 0 0 21.6022 -46.6565 5.31939 -80.5899 -48.9846 -60.4984 53.3476 -12.1582 -2.63218 0 0 0 -19.8394 -41.5211 -6.82147 60.3392 -57.515 47.6568 -64.5184 -40.0024 5.74105 0 0 0 3.18799 -22.7267 1.53305 
-25.6189 -1.13 -59.4611 -12.8821 6.52633 29.0343 30.0683 -34.4799 27.6522 3.35402 44.1039 -1.06454 -15.4823 -15.885 1.54855 -33.2634 -26.6456 -39.0713 -1.39218 37.4744 7.63163 24.7806 7.95098 7.04032 9.58977 29.4841 -7.93537 0 0 0 20.998 -44.7271 6.30132 -79.4577 -49.7408 -59.7554 51.492 -12.7494 -3.68354 0 0 0 -18.5543 -40.1479 -4.83085 59.2175 -57.1394 46.8796 -65.2932 -40.6797 4.39153 0 0 0 2.89834 -19.7471 -0.268914 
-25.4808 -1.0472 -59.7976 -11.7246 7.10467 22.1513 31.4171 -31.2924 30.2214 4.24342 43.6969 -1.87304 -16.9597 -15.8872 3.2952 -31.4757 -23.6021 -34.774 -1.37868 39.2333 7.89239 20.488 2.87886 7.62558 8.35832 28.556 -7.60221 0 0 0 20.9021 -42.7493 8.25678 -78.7594 -50.4415 -59.21 49.5572 -13.5427 -4.57465 0 0 0 -17.3251 -38.9745 -2.96814 59.2825 -56.7207 47.1097 -66.4295 -41.3545 3.57745 0 0 0 2.24955 -17.2586 -0.352051 
-25.4431 -1.3284 -60.0286 -10.6695 7.53267 15.4003 32.5248 -27.8614 30.5022 4.32401 43.4105 -1.89307 -18.9405 -16.0653 4.61063 -30.414 -21.38 -30.8311 -0.566117 39.1993 7.63741 16.6138 -2.7016 10.7739 7.60926 27.1398 -7.51403 0 0 0 20.6465 -40.588 9.82791 -79.8315 -49.7689 -59.999 47.737 -14.2843 -5.30496 0 0 0 -16.6858 -37.5894 -2.20716 59.1622 -56.363 47.2735 -66.6548 -41.8948 3.05786 0 0 0 0.875401 -15.2443 1.33623 
